<mxfile host="app.diagrams.net" modified="2024-04-15T21:15:44.455Z" agent="Mozilla/5.0 (Windows NT 10.0; Win64; x64) AppleWebKit/537.36 (KHTML, like Gecko) Chrome/123.0.0.0 Safari/537.36" etag="jQ1Ls0tBrUSM0FFT9yBw" version="24.2.5" type="device">
  <diagram name="Page-1" id="ROxDhTGnJAB1bPT3YE-i">
    <mxGraphModel dx="1106" dy="959" grid="1" gridSize="10" guides="1" tooltips="1" connect="1" arrows="1" fold="1" page="1" pageScale="1" pageWidth="850" pageHeight="1100" math="0" shadow="0">
      <root>
        <mxCell id="0" />
        <mxCell id="1" parent="0" />
        <mxCell id="aWb_NXDTLw0kON-bvnt1-21" style="edgeStyle=orthogonalEdgeStyle;rounded=0;orthogonalLoop=1;jettySize=auto;html=1;exitX=1;exitY=0.5;exitDx=0;exitDy=0;fontSize=13;fontStyle=0" edge="1" parent="1" source="aWb_NXDTLw0kON-bvnt1-4">
          <mxGeometry relative="1" as="geometry">
            <mxPoint x="480" y="419.9999999999998" as="targetPoint" />
            <Array as="points">
              <mxPoint x="420" y="260" />
              <mxPoint x="420" y="420" />
            </Array>
          </mxGeometry>
        </mxCell>
        <mxCell id="aWb_NXDTLw0kON-bvnt1-4" value="Bering Straits" style="rounded=0;whiteSpace=wrap;html=1;fillColor=#f8cecc;strokeColor=#b85450;fontSize=13;fontStyle=0" vertex="1" parent="1">
          <mxGeometry x="200" y="240" width="160" height="40" as="geometry" />
        </mxCell>
        <mxCell id="aWb_NXDTLw0kON-bvnt1-30" style="edgeStyle=orthogonalEdgeStyle;rounded=0;orthogonalLoop=1;jettySize=auto;html=1;exitX=1;exitY=0.5;exitDx=0;exitDy=0;entryX=0;entryY=0.5;entryDx=0;entryDy=0;fontSize=13;fontStyle=0" edge="1" parent="1" source="aWb_NXDTLw0kON-bvnt1-5" target="aWb_NXDTLw0kON-bvnt1-16">
          <mxGeometry relative="1" as="geometry" />
        </mxCell>
        <mxCell id="aWb_NXDTLw0kON-bvnt1-5" value="Railbelt" style="rounded=0;whiteSpace=wrap;html=1;fillColor=#d5e8d4;strokeColor=#82b366;fontSize=13;fontStyle=0" vertex="1" parent="1">
          <mxGeometry x="200" y="960" width="160" height="40" as="geometry" />
        </mxCell>
        <mxCell id="aWb_NXDTLw0kON-bvnt1-29" style="edgeStyle=orthogonalEdgeStyle;rounded=0;orthogonalLoop=1;jettySize=auto;html=1;exitX=1;exitY=0.5;exitDx=0;exitDy=0;fontSize=13;fontStyle=0" edge="1" parent="1" source="aWb_NXDTLw0kON-bvnt1-6">
          <mxGeometry relative="1" as="geometry">
            <mxPoint x="480" y="819.9999999999998" as="targetPoint" />
            <Array as="points">
              <mxPoint x="420" y="900" />
              <mxPoint x="420" y="820" />
            </Array>
          </mxGeometry>
        </mxCell>
        <mxCell id="aWb_NXDTLw0kON-bvnt1-6" value="Southeast" style="rounded=0;whiteSpace=wrap;html=1;fillColor=#dae8fc;strokeColor=#6c8ebf;fontSize=13;fontStyle=0" vertex="1" parent="1">
          <mxGeometry x="200" y="880" width="160" height="40" as="geometry" />
        </mxCell>
        <mxCell id="aWb_NXDTLw0kON-bvnt1-20" style="edgeStyle=orthogonalEdgeStyle;rounded=0;orthogonalLoop=1;jettySize=auto;html=1;exitX=1;exitY=0.5;exitDx=0;exitDy=0;entryX=0;entryY=0.5;entryDx=0;entryDy=0;fontSize=13;fontStyle=0" edge="1" parent="1" source="aWb_NXDTLw0kON-bvnt1-7" target="aWb_NXDTLw0kON-bvnt1-18">
          <mxGeometry relative="1" as="geometry" />
        </mxCell>
        <mxCell id="aWb_NXDTLw0kON-bvnt1-7" value="Aleutians" style="rounded=0;whiteSpace=wrap;html=1;fillColor=#f8cecc;strokeColor=#b85450;fontSize=13;fontStyle=0" vertex="1" parent="1">
          <mxGeometry x="200" y="160" width="160" height="40" as="geometry" />
        </mxCell>
        <mxCell id="aWb_NXDTLw0kON-bvnt1-22" style="edgeStyle=orthogonalEdgeStyle;rounded=0;orthogonalLoop=1;jettySize=auto;html=1;exitX=1;exitY=0.5;exitDx=0;exitDy=0;entryX=0;entryY=0.5;entryDx=0;entryDy=0;fontSize=13;fontStyle=0" edge="1" parent="1" source="aWb_NXDTLw0kON-bvnt1-8" target="aWb_NXDTLw0kON-bvnt1-18">
          <mxGeometry relative="1" as="geometry" />
        </mxCell>
        <mxCell id="aWb_NXDTLw0kON-bvnt1-8" value="Bristol Bay" style="rounded=0;whiteSpace=wrap;html=1;fillColor=#f8cecc;strokeColor=#b85450;fontSize=13;fontStyle=0" vertex="1" parent="1">
          <mxGeometry x="200" y="320" width="160" height="40" as="geometry" />
        </mxCell>
        <mxCell id="aWb_NXDTLw0kON-bvnt1-19" style="edgeStyle=orthogonalEdgeStyle;rounded=0;orthogonalLoop=1;jettySize=auto;html=1;exitX=1;exitY=0.5;exitDx=0;exitDy=0;entryX=0;entryY=0.5;entryDx=0;entryDy=0;fontSize=13;fontStyle=0" edge="1" parent="1" source="aWb_NXDTLw0kON-bvnt1-9" target="aWb_NXDTLw0kON-bvnt1-18">
          <mxGeometry relative="1" as="geometry" />
        </mxCell>
        <mxCell id="aWb_NXDTLw0kON-bvnt1-9" value="Lower Yukon Kuskokwim" style="rounded=0;whiteSpace=wrap;html=1;fillColor=#f8cecc;strokeColor=#b85450;fontSize=13;fontStyle=0" vertex="1" parent="1">
          <mxGeometry x="200" y="400" width="160" height="40" as="geometry" />
        </mxCell>
        <mxCell id="aWb_NXDTLw0kON-bvnt1-24" style="edgeStyle=orthogonalEdgeStyle;rounded=0;orthogonalLoop=1;jettySize=auto;html=1;exitX=1;exitY=0.5;exitDx=0;exitDy=0;entryX=0;entryY=0.5;entryDx=0;entryDy=0;fontSize=13;fontStyle=0" edge="1" parent="1" source="aWb_NXDTLw0kON-bvnt1-10" target="aWb_NXDTLw0kON-bvnt1-18">
          <mxGeometry relative="1" as="geometry" />
        </mxCell>
        <mxCell id="aWb_NXDTLw0kON-bvnt1-10" value="North Slope" style="rounded=0;whiteSpace=wrap;html=1;fillColor=#f8cecc;strokeColor=#b85450;fontSize=13;fontStyle=0" vertex="1" parent="1">
          <mxGeometry x="200" y="480" width="160" height="40" as="geometry" />
        </mxCell>
        <mxCell id="aWb_NXDTLw0kON-bvnt1-25" style="edgeStyle=orthogonalEdgeStyle;rounded=0;orthogonalLoop=1;jettySize=auto;html=1;exitX=1;exitY=0.5;exitDx=0;exitDy=0;fontSize=13;fontStyle=0" edge="1" parent="1" source="aWb_NXDTLw0kON-bvnt1-11">
          <mxGeometry relative="1" as="geometry">
            <mxPoint x="480" y="419.9999999999998" as="targetPoint" />
            <Array as="points">
              <mxPoint x="420" y="580" />
              <mxPoint x="420" y="420" />
            </Array>
          </mxGeometry>
        </mxCell>
        <mxCell id="aWb_NXDTLw0kON-bvnt1-11" value="Northwest Borough" style="rounded=0;whiteSpace=wrap;html=1;fillColor=#f8cecc;strokeColor=#b85450;fontSize=13;fontStyle=0" vertex="1" parent="1">
          <mxGeometry x="200" y="560" width="160" height="40" as="geometry" />
        </mxCell>
        <mxCell id="aWb_NXDTLw0kON-bvnt1-26" style="edgeStyle=orthogonalEdgeStyle;rounded=0;orthogonalLoop=1;jettySize=auto;html=1;exitX=1;exitY=0.5;exitDx=0;exitDy=0;entryX=0;entryY=0.5;entryDx=0;entryDy=0;fontSize=13;fontStyle=0" edge="1" parent="1" source="aWb_NXDTLw0kON-bvnt1-12" target="aWb_NXDTLw0kON-bvnt1-18">
          <mxGeometry relative="1" as="geometry" />
        </mxCell>
        <mxCell id="aWb_NXDTLw0kON-bvnt1-12" value="Yukon-Koyukuk Upper Tanana" style="rounded=0;whiteSpace=wrap;html=1;fillColor=#f8cecc;strokeColor=#b85450;fontSize=13;fontStyle=0" vertex="1" parent="1">
          <mxGeometry x="200" y="640" width="160" height="40" as="geometry" />
        </mxCell>
        <mxCell id="aWb_NXDTLw0kON-bvnt1-27" style="edgeStyle=orthogonalEdgeStyle;rounded=0;orthogonalLoop=1;jettySize=auto;html=1;exitX=1;exitY=0.5;exitDx=0;exitDy=0;entryX=0;entryY=0.5;entryDx=0;entryDy=0;fontSize=13;fontStyle=0" edge="1" parent="1" source="aWb_NXDTLw0kON-bvnt1-13" target="aWb_NXDTLw0kON-bvnt1-17">
          <mxGeometry relative="1" as="geometry" />
        </mxCell>
        <mxCell id="aWb_NXDTLw0kON-bvnt1-13" value="Copper River/Chugach" style="rounded=0;whiteSpace=wrap;html=1;fillColor=#dae8fc;strokeColor=#6c8ebf;fontSize=13;fontStyle=0" vertex="1" parent="1">
          <mxGeometry x="200" y="720" width="160" height="40" as="geometry" />
        </mxCell>
        <mxCell id="aWb_NXDTLw0kON-bvnt1-28" style="edgeStyle=orthogonalEdgeStyle;rounded=0;orthogonalLoop=1;jettySize=auto;html=1;exitX=1;exitY=0.5;exitDx=0;exitDy=0;fontSize=13;fontStyle=0" edge="1" parent="1" source="aWb_NXDTLw0kON-bvnt1-14">
          <mxGeometry relative="1" as="geometry">
            <mxPoint x="480" y="819.8235294117646" as="targetPoint" />
          </mxGeometry>
        </mxCell>
        <mxCell id="aWb_NXDTLw0kON-bvnt1-14" value="Kodiak" style="rounded=0;whiteSpace=wrap;html=1;fillColor=#dae8fc;strokeColor=#6c8ebf;fontSize=13;fontStyle=0" vertex="1" parent="1">
          <mxGeometry x="200" y="800" width="160" height="40" as="geometry" />
        </mxCell>
        <mxCell id="aWb_NXDTLw0kON-bvnt1-16" value="Railbelt" style="rounded=0;whiteSpace=wrap;html=1;fillColor=#d5e8d4;strokeColor=#82b366;fontSize=13;fontStyle=0" vertex="1" parent="1">
          <mxGeometry x="480" y="960" width="160" height="40" as="geometry" />
        </mxCell>
        <mxCell id="aWb_NXDTLw0kON-bvnt1-17" value="Coastal" style="rounded=0;whiteSpace=wrap;html=1;fillColor=#dae8fc;strokeColor=#6c8ebf;fontSize=13;fontStyle=0" vertex="1" parent="1">
          <mxGeometry x="480" y="800" width="160" height="40" as="geometry" />
        </mxCell>
        <mxCell id="aWb_NXDTLw0kON-bvnt1-18" value="Rural Remote" style="rounded=0;whiteSpace=wrap;html=1;fillColor=#f8cecc;strokeColor=#b85450;fontSize=13;fontStyle=0" vertex="1" parent="1">
          <mxGeometry x="480" y="400" width="160" height="40" as="geometry" />
        </mxCell>
        <mxCell id="aWb_NXDTLw0kON-bvnt1-31" value="&lt;b&gt;&lt;u&gt;&lt;font style=&quot;font-size: 15px;&quot;&gt;AEA Energy Region&lt;/font&gt;&lt;/u&gt;&lt;/b&gt;" style="text;html=1;align=center;verticalAlign=middle;whiteSpace=wrap;rounded=0;" vertex="1" parent="1">
          <mxGeometry x="200" y="80" width="160" height="40" as="geometry" />
        </mxCell>
        <mxCell id="aWb_NXDTLw0kON-bvnt1-32" value="&lt;b&gt;&lt;u&gt;&lt;font style=&quot;font-size: 15px;&quot;&gt;ACEP Energy Region&lt;/font&gt;&lt;/u&gt;&lt;/b&gt;" style="text;html=1;align=center;verticalAlign=middle;whiteSpace=wrap;rounded=0;" vertex="1" parent="1">
          <mxGeometry x="480" y="80" width="160" height="40" as="geometry" />
        </mxCell>
      </root>
    </mxGraphModel>
  </diagram>
</mxfile>
